<svg width="128" height="107" viewBox="0 0 128 107" fill="none" xmlns="http://www.w3.org/2000/svg">
<path d="M3.51339 86.9634V55.2504H28.2458V60.3818H9.52313V68.1945H26.2117V73.3259H9.52313V81.832H28.5232V86.9634H3.51339ZM35.4979 86.9634V55.2504H52.1865C54.5288 55.2504 56.4704 55.6511 58.0114 56.4524C59.5523 57.2537 60.708 58.394 61.4785 59.8733C62.249 61.3526 62.6342 63.0939 62.6342 65.0972C62.6342 67.162 62.172 68.9958 61.2474 70.5984C60.3228 72.1702 58.9668 73.3567 57.1792 74.158L63.7437 86.9634H57.1792L51.3544 75.175H41.5077V86.9634H35.4979ZM41.5077 70.1361H51.7242C53.2652 70.1361 54.4517 69.6892 55.2839 68.7955C56.116 67.9017 56.532 66.6689 56.532 65.0972C56.532 64.0801 56.3471 63.2326 55.9773 62.5546C55.6075 61.8457 55.0681 61.3064 54.3593 60.9366C53.6504 60.5667 52.7721 60.3818 51.7242 60.3818H41.5077V70.1361ZM69.5592 86.9634V55.2504H85.4619C87.8041 55.2504 89.7303 55.6665 91.2405 56.4986C92.7814 57.3307 93.9371 58.5019 94.7076 60.012C95.4781 61.5221 95.8634 63.3251 95.8634 65.4208C95.8634 67.4856 95.4627 69.2886 94.6614 70.8295C93.8601 72.3705 92.6582 73.5724 91.0556 74.4354C89.4838 75.2675 87.5113 75.6836 85.1383 75.6836H75.5689V86.9634H69.5592ZM75.5689 70.5522H84.9534C86.4943 70.5522 87.6809 70.1053 88.513 69.2115C89.3759 68.2869 89.8074 67.0234 89.8074 65.4208C89.8074 64.3421 89.6225 63.4329 89.2526 62.6933C88.8828 61.9536 88.3435 61.3834 87.6346 60.9828C86.9258 60.5821 86.032 60.3818 84.9534 60.3818H75.5689V70.5522ZM110.422 87.5181C108.665 87.5181 107.124 87.3332 105.799 86.9634C104.474 86.5627 103.364 86.0234 102.47 85.3454C101.577 84.6673 100.899 83.8815 100.436 82.9877C100.005 82.0631 99.7892 81.0615 99.7892 79.9828C99.7892 79.8287 99.7892 79.69 99.7892 79.5668C99.82 79.4435 99.8354 79.351 99.8354 79.2894H105.383C105.383 79.351 105.383 79.4127 105.383 79.4743C105.383 79.536 105.383 79.5976 105.383 79.6592C105.414 80.4913 105.676 81.1694 106.169 81.6933C106.662 82.1864 107.309 82.5408 108.11 82.7566C108.912 82.9723 109.759 83.0802 110.653 83.0802C111.454 83.0802 112.209 83.0031 112.918 82.849C113.658 82.6641 114.259 82.3867 114.721 82.0169C115.214 81.6162 115.461 81.1077 115.461 80.4913C115.461 79.69 115.153 79.0737 114.536 78.6422C113.92 78.2107 113.103 77.8563 112.086 77.5789C111.1 77.3016 110.037 77.0088 108.896 76.7006C107.879 76.4232 106.862 76.115 105.845 75.776C104.828 75.437 103.904 75.0055 103.071 74.4816C102.27 73.9577 101.608 73.2797 101.084 72.4475C100.59 71.6154 100.344 70.583 100.344 69.3502C100.344 68.1483 100.606 67.1004 101.13 66.2066C101.654 65.3129 102.378 64.5732 103.303 63.9877C104.227 63.3713 105.321 62.909 106.585 62.6008C107.848 62.2926 109.22 62.1385 110.699 62.1385C112.148 62.1385 113.457 62.2926 114.629 62.6008C115.831 62.909 116.863 63.3559 117.726 63.9414C118.62 64.4962 119.298 65.1896 119.76 66.0217C120.253 66.823 120.5 67.7168 120.5 68.703C120.5 68.9187 120.484 69.1345 120.453 69.3502C120.453 69.5659 120.453 69.6892 120.453 69.72H114.952V69.3964C114.952 68.8109 114.767 68.3178 114.397 67.9171C114.058 67.4856 113.55 67.1466 112.872 66.9001C112.225 66.6535 111.408 66.5303 110.422 66.5303C109.682 66.5303 109.035 66.5919 108.48 66.7152C107.925 66.8384 107.463 67.0079 107.093 67.2237C106.754 67.4394 106.492 67.686 106.307 67.9633C106.123 68.2407 106.03 68.5489 106.03 68.8879C106.03 69.4735 106.261 69.9358 106.724 70.2748C107.186 70.6138 107.802 70.9066 108.573 71.1531C109.374 71.3997 110.237 71.6616 111.161 71.939C112.271 72.2472 113.411 72.5708 114.582 72.9098C115.754 73.218 116.832 73.6187 117.818 74.1118C118.835 74.6049 119.652 75.2983 120.269 76.1921C120.885 77.0858 121.193 78.2724 121.193 79.7517C121.193 81.1694 120.916 82.3867 120.361 83.4038C119.837 84.39 119.082 85.1913 118.096 85.8077C117.14 86.3932 116 86.8247 114.675 87.1021C113.38 87.3794 111.963 87.5181 110.422 87.5181Z" fill="#EF7065"/>
<path d="M13.6236 44.3933C17.4782 44.3933 20.3364 41.9284 21.0707 38.0738L20.7036 37.9951C19.9169 40.2764 17.8453 41.7449 15.1969 41.7449C11.4733 41.7449 8.69378 38.7556 8.66755 34.2453C8.64133 29.7876 10.6342 26.8244 13.5449 26.8244C15.564 26.8244 17.0324 28.5289 17.5044 31.0987L20.756 30.1284C19.9169 27.5849 17.2422 26.0902 13.8071 26.0902C8.22178 26.0902 4.944 30.2333 4.99644 35.6351C4.99644 40.5387 8.56267 44.3933 13.6236 44.3933ZM27.8809 39.9093V30.312H27.5137L22.6102 31.7018V32.0689L23.056 32.0951C24.0262 32.2 24.4982 32.672 24.4982 33.5111V40.1191C24.4982 42.7413 25.7569 44.3933 28.3004 44.3933C30.136 44.3933 31.5257 43.1871 32.8631 41.4564L32.9942 44.3933H33.3613L38.1337 43.0036V42.6364L37.6617 42.6102C36.7702 42.5053 36.2457 42.0858 36.2457 41.1942V30.312H35.8786L30.9489 31.7018V32.0689L31.4209 32.0951C32.3649 32.2 32.8369 32.672 32.8369 33.5111V40.696C31.8142 41.7973 30.9751 42.2169 29.9262 42.2169C28.6675 42.2169 27.8809 41.3516 27.8809 39.9093ZM45.5626 44.3671C48.6306 44.3671 50.9644 42.6364 50.9382 40.0667C50.8595 34.7698 42.9666 36.5004 42.9666 32.9867C42.9666 31.8591 43.8582 31.0724 45.1168 31.0724C46.5066 31.0724 47.7391 32.3311 48.316 34.1404L50.5973 32.9867C49.9417 31.2822 47.8702 30.3382 45.5364 30.3382C42.3635 30.3382 40.292 32.0689 40.3182 34.4813C40.3444 39.6471 48.1848 37.6018 48.2111 41.5876C48.2111 42.82 47.1884 43.6329 45.7986 43.6329C44.1466 43.6329 42.7044 42.2169 42.2062 40.0929L39.7151 41.404C40.5542 43.0822 42.8093 44.3671 45.5626 44.3671ZM57.6091 27.3751H57.242L52.7842 31.0724V31.4396H54.2002V40.5649C54.2002 42.9773 55.6162 44.3933 57.8451 44.3933C59.9428 44.3933 61.018 43.2133 61.5424 42.3742L61.3326 42.1907C60.9131 42.5053 60.4673 42.8462 59.6806 42.8462C58.3433 42.8462 57.6091 41.7973 57.6091 40.4338V31.4396H61.4375V30.7053H57.6091V27.3751ZM69.4744 44.3933C73.4864 44.3933 76.266 41.404 76.266 37.0773C76.266 33.0916 73.5913 30.312 69.6842 30.312C65.6722 30.312 62.8926 33.3276 62.8926 37.6542C62.8926 41.64 65.5673 44.3933 69.4744 44.3933ZM66.4064 36.2382C66.4064 33.2227 67.4029 31.0462 69.2122 31.0462C71.4673 31.0462 72.7522 34.6387 72.7522 38.4409C72.7522 41.5351 71.7557 43.6591 69.9726 43.6591C67.7175 43.6591 66.4064 40.1191 66.4064 36.2382ZM78.4 43.6329V44H84.7196V43.6329C83.7231 43.3969 83.2511 43.1084 83.2511 42.0071V33.8782C84.1951 32.908 85.0342 32.5147 86.0831 32.5147C87.3418 32.5147 88.1022 33.38 88.1022 34.8222V42.0071C88.1022 43.1084 87.6302 43.3969 86.6338 43.6329V44H92.9533V43.6329C91.9831 43.3969 91.5111 43.1084 91.5111 42.0071V34.6124C91.5111 34.4027 91.5111 34.1929 91.4849 34.0093C92.4813 32.9342 93.3467 32.5147 94.448 32.5147C95.6804 32.5147 96.4671 33.38 96.4671 34.8222V42.0071C96.4671 43.1084 95.9951 43.3969 94.9987 43.6329V44H101.318V43.6329C100.348 43.3969 99.876 43.1084 99.876 42.0071V34.6124C99.876 31.9902 98.5911 30.3382 96.0476 30.3382C94.1333 30.3382 92.7173 31.6756 91.4062 33.38C91.0391 31.492 89.8067 30.3382 87.6827 30.3382C85.8996 30.3382 84.5098 31.5444 83.2511 33.1178V30.312H82.884L77.9542 31.7018V32.0689L78.4262 32.0951C79.3965 32.2 79.8422 32.672 79.8422 33.5111V42.0071C79.8422 43.1084 79.3702 43.3969 78.4 43.6329ZM109.546 44.3671C112.771 44.3671 114.711 42.3218 115.236 39.8831L114.921 39.7782C114.187 40.932 112.928 41.876 111.224 41.876C108.313 41.876 106.32 39.8831 106.425 36.3169V36.1071H115.21C115.21 32.6458 113.427 30.3382 109.755 30.3382C105.743 30.3382 103.121 33.2751 103.121 37.6542C103.121 41.2204 105.376 44.3671 109.546 44.3671ZM106.504 35.3729C106.766 33.0391 107.658 31.0724 109.336 31.0724C110.962 31.0724 111.748 33.4849 111.801 35.3729H106.504ZM122.609 42.0071V35.1107C123.317 33.8258 124.576 33.1702 125.782 33.1702C126.437 33.1702 127.041 33.3013 127.486 33.6684L127.696 30.548C127.329 30.3907 126.936 30.312 126.595 30.312C124.89 30.312 123.474 31.8329 122.609 34.2716V30.312H122.242L117.312 31.7018V32.0689L117.784 32.0951C118.754 32.2262 119.2 32.672 119.2 33.5373V42.0071C119.2 43.0822 118.676 43.3969 117.496 43.6329V44H124.943V43.6329C123.133 43.3969 122.609 43.0822 122.609 42.0071Z" fill="#EF7065"/>
</svg>
