<svg width="128" height="107" viewBox="0 0 128 107" fill="none" xmlns="http://www.w3.org/2000/svg">
<path d="M3.51339 87.9634V56.2504H28.2458V61.3818H9.52313V69.1945H26.2117V74.3259H9.52313V82.832H28.5232V87.9634H3.51339ZM35.4979 87.9634V56.2504H52.1865C55.6075 56.2504 58.1963 57.1288 59.953 58.8855C61.7405 60.6113 62.6342 63.0152 62.6342 66.0972C62.6342 68.162 62.1565 69.9958 61.2011 71.5984C60.2766 73.1702 58.9359 74.3567 57.1792 75.158L63.7437 87.9634H57.1792L51.3544 76.175H41.5077V87.9634H35.4979ZM41.5077 71.1361H51.7242C53.2344 71.1361 54.4055 70.6892 55.2376 69.7955C56.1006 68.9017 56.532 67.6689 56.532 66.0972C56.532 64.587 56.116 63.4313 55.2839 62.63C54.4826 61.7979 53.296 61.3818 51.7242 61.3818H41.5077V71.1361ZM69.5592 87.9634V56.2504H85.4619C88.8828 56.2504 91.4716 57.1442 93.2283 58.9317C94.985 60.7192 95.8634 63.2156 95.8634 66.4208C95.8634 69.5951 94.9388 72.1069 93.0896 73.9561C91.2713 75.7744 88.6208 76.6836 85.1383 76.6836H75.5689V87.9634H69.5592ZM75.5689 71.5522H84.9534C86.4635 71.5522 87.65 71.1053 88.513 70.2115C89.3759 69.2869 89.8074 68.0234 89.8074 66.4208C89.8074 64.8182 89.3913 63.5854 88.5592 62.7225C87.7271 61.8287 86.5251 61.3818 84.9534 61.3818H75.5689V71.5522ZM110.422 88.5181C107.032 88.5181 104.412 87.8247 102.563 86.4378C100.714 85.0201 99.7892 83.2018 99.7892 80.9828C99.7892 80.8596 99.7892 80.7209 99.7892 80.5668C99.82 80.4127 99.8354 80.3202 99.8354 80.2894H105.383V80.6592C105.414 81.8304 105.922 82.6933 106.908 83.248C107.895 83.8028 109.143 84.0802 110.653 84.0802C111.978 84.0802 113.103 83.8798 114.028 83.4792C114.983 83.0477 115.461 82.3851 115.461 81.4913C115.461 81.2448 115.43 81.0137 115.368 80.7979C115.307 80.5514 115.183 80.3356 114.998 80.1507C114.844 79.9658 114.69 79.8117 114.536 79.6884C114.382 79.5343 114.151 79.3956 113.843 79.2724C113.535 79.1183 113.273 78.995 113.057 78.9025C112.841 78.8101 112.518 78.7022 112.086 78.5789C111.685 78.4557 111.362 78.3632 111.115 78.3016C110.869 78.2091 110.499 78.1012 110.006 77.978C109.513 77.8547 109.143 77.7622 108.896 77.7006C107.818 77.3924 106.985 77.1458 106.4 76.9609C105.814 76.776 105.075 76.4832 104.181 76.0826C103.287 75.6511 102.609 75.2196 102.147 74.7882C101.685 74.3259 101.269 73.7095 100.899 72.939C100.529 72.1685 100.344 71.3056 100.344 70.3502C100.344 68.0388 101.299 66.2667 103.21 65.0339C105.121 63.7703 107.617 63.1385 110.699 63.1385C113.596 63.1385 115.954 63.7395 117.772 64.9414C119.591 66.1434 120.5 67.7306 120.5 69.703C120.5 69.8263 120.5 69.9804 120.5 70.1653C120.5 70.3194 120.5 70.4581 120.5 70.5814L120.453 70.72H114.952V70.3964C114.952 69.5335 114.552 68.8401 113.75 68.3161C112.949 67.7922 111.839 67.5303 110.422 67.5303C109.004 67.5303 107.91 67.7614 107.14 68.2237C106.4 68.6552 106.03 69.2099 106.03 69.8879C106.03 70.0728 106.045 70.2578 106.076 70.4427C106.138 70.5968 106.23 70.7509 106.354 70.905C106.477 71.0282 106.6 71.1515 106.724 71.2748C106.847 71.3672 107.016 71.4751 107.232 71.5984C107.479 71.7217 107.679 71.8295 107.833 71.922C107.987 71.9836 108.234 72.0761 108.573 72.1994C108.912 72.2918 109.174 72.3689 109.359 72.4305C109.543 72.4613 109.836 72.5384 110.237 72.6616C110.668 72.7849 110.977 72.8774 111.161 72.939C111.531 73.0623 112.086 73.2164 112.826 73.4013C113.565 73.5862 114.151 73.7403 114.582 73.8636C115.045 73.9869 115.599 74.1718 116.247 74.4183C116.894 74.6649 117.418 74.896 117.818 75.1118C118.25 75.3275 118.697 75.6357 119.159 76.0363C119.621 76.4062 119.976 76.8068 120.222 77.2383C120.5 77.6389 120.731 78.1475 120.916 78.7638C121.101 79.3802 121.193 80.0428 121.193 80.7517C121.193 85.9293 117.603 88.5181 110.422 88.5181Z" fill="#595757"/>
<path d="M13.6236 44.3933C17.4782 44.3933 20.3364 41.9284 21.0707 38.0738L20.7036 37.9951C19.9169 40.2764 17.8453 41.7449 15.1969 41.7449C11.4733 41.7449 8.69378 38.7556 8.66755 34.2453C8.64133 29.7876 10.6342 26.8244 13.5449 26.8244C15.564 26.8244 17.0324 28.5289 17.5044 31.0987L20.756 30.1284C19.9169 27.5849 17.2422 26.0902 13.8071 26.0902C8.22178 26.0902 4.944 30.2333 4.99644 35.6351C4.99644 40.5387 8.56267 44.3933 13.6236 44.3933ZM27.8809 39.9093V30.312H27.5137L22.6102 31.7018V32.0689L23.056 32.0951C24.0262 32.2 24.4982 32.672 24.4982 33.5111V40.1191C24.4982 42.7413 25.7569 44.3933 28.3004 44.3933C30.136 44.3933 31.5257 43.1871 32.8631 41.4564L32.9942 44.3933H33.3613L38.1337 43.0036V42.6364L37.6617 42.6102C36.7702 42.5053 36.2457 42.0858 36.2457 41.1942V30.312H35.8786L30.9489 31.7018V32.0689L31.4209 32.0951C32.3649 32.2 32.8369 32.672 32.8369 33.5111V40.696C31.8142 41.7973 30.9751 42.2169 29.9262 42.2169C28.6675 42.2169 27.8809 41.3516 27.8809 39.9093ZM45.5626 44.3671C48.6306 44.3671 50.9644 42.6364 50.9382 40.0667C50.8595 34.7698 42.9666 36.5004 42.9666 32.9867C42.9666 31.8591 43.8582 31.0724 45.1168 31.0724C46.5066 31.0724 47.7391 32.3311 48.316 34.1404L50.5973 32.9867C49.9417 31.2822 47.8702 30.3382 45.5364 30.3382C42.3635 30.3382 40.292 32.0689 40.3182 34.4813C40.3444 39.6471 48.1848 37.6018 48.2111 41.5876C48.2111 42.82 47.1884 43.6329 45.7986 43.6329C44.1466 43.6329 42.7044 42.2169 42.2062 40.0929L39.7151 41.404C40.5542 43.0822 42.8093 44.3671 45.5626 44.3671ZM57.6091 27.3751H57.242L52.7842 31.0724V31.4396H54.2002V40.5649C54.2002 42.9773 55.6162 44.3933 57.8451 44.3933C59.9428 44.3933 61.018 43.2133 61.5424 42.3742L61.3326 42.1907C60.9131 42.5053 60.4673 42.8462 59.6806 42.8462C58.3433 42.8462 57.6091 41.7973 57.6091 40.4338V31.4396H61.4375V30.7053H57.6091V27.3751ZM69.4744 44.3933C73.4864 44.3933 76.266 41.404 76.266 37.0773C76.266 33.0916 73.5913 30.312 69.6842 30.312C65.6722 30.312 62.8926 33.3276 62.8926 37.6542C62.8926 41.64 65.5673 44.3933 69.4744 44.3933ZM66.4064 36.2382C66.4064 33.2227 67.4029 31.0462 69.2122 31.0462C71.4673 31.0462 72.7522 34.6387 72.7522 38.4409C72.7522 41.5351 71.7557 43.6591 69.9726 43.6591C67.7175 43.6591 66.4064 40.1191 66.4064 36.2382ZM78.4 43.6329V44H84.7196V43.6329C83.7231 43.3969 83.2511 43.1084 83.2511 42.0071V33.8782C84.1951 32.908 85.0342 32.5147 86.0831 32.5147C87.3418 32.5147 88.1022 33.38 88.1022 34.8222V42.0071C88.1022 43.1084 87.6302 43.3969 86.6338 43.6329V44H92.9533V43.6329C91.9831 43.3969 91.5111 43.1084 91.5111 42.0071V34.6124C91.5111 34.4027 91.5111 34.1929 91.4849 34.0093C92.4813 32.9342 93.3467 32.5147 94.448 32.5147C95.6804 32.5147 96.4671 33.38 96.4671 34.8222V42.0071C96.4671 43.1084 95.9951 43.3969 94.9987 43.6329V44H101.318V43.6329C100.348 43.3969 99.876 43.1084 99.876 42.0071V34.6124C99.876 31.9902 98.5911 30.3382 96.0476 30.3382C94.1333 30.3382 92.7173 31.6756 91.4062 33.38C91.0391 31.492 89.8067 30.3382 87.6827 30.3382C85.8996 30.3382 84.5098 31.5444 83.2511 33.1178V30.312H82.884L77.9542 31.7018V32.0689L78.4262 32.0951C79.3965 32.2 79.8422 32.672 79.8422 33.5111V42.0071C79.8422 43.1084 79.3702 43.3969 78.4 43.6329ZM109.546 44.3671C112.771 44.3671 114.711 42.3218 115.236 39.8831L114.921 39.7782C114.187 40.932 112.928 41.876 111.224 41.876C108.313 41.876 106.32 39.8831 106.425 36.3169V36.1071H115.21C115.21 32.6458 113.427 30.3382 109.755 30.3382C105.743 30.3382 103.121 33.2751 103.121 37.6542C103.121 41.2204 105.376 44.3671 109.546 44.3671ZM106.504 35.3729C106.766 33.0391 107.658 31.0724 109.336 31.0724C110.962 31.0724 111.748 33.4849 111.801 35.3729H106.504ZM122.609 42.0071V35.1107C123.317 33.8258 124.576 33.1702 125.782 33.1702C126.437 33.1702 127.041 33.3013 127.486 33.6684L127.696 30.548C127.329 30.3907 126.936 30.312 126.595 30.312C124.89 30.312 123.474 31.8329 122.609 34.2716V30.312H122.242L117.312 31.7018V32.0689L117.784 32.0951C118.754 32.2262 119.2 32.672 119.2 33.5373V42.0071C119.2 43.0822 118.676 43.3969 117.496 43.6329V44H124.943V43.6329C123.133 43.3969 122.609 43.0822 122.609 42.0071Z" fill="#595757"/>
</svg>
