<svg width="56" height="22" viewBox="0 0 56 22" fill="none" xmlns="http://www.w3.org/2000/svg">
<path d="M15.7368 9.39675C15.4495 10.5897 15.1623 11.752 14.8571 13.0061C15.0247 12.9021 15.1384 12.8532 15.2281 12.7798C16.2275 11.9233 17.2209 11.0607 18.2143 10.2043C18.2203 10.1982 18.2323 10.192 18.2382 10.1798C18.5195 9.79439 18.8008 9.38451 18.5913 8.88899C18.3819 8.39347 17.8971 8.3017 17.4244 8.29558C15.9582 8.265 14.4921 8.25888 13.0319 8.24053C12.9721 8.24053 12.9122 8.22829 12.8105 8.21606C12.99 7.71441 13.1516 7.23113 13.3371 6.75395C13.361 6.69278 13.4628 6.6316 13.5286 6.6316C15.0666 6.62548 16.6105 6.60713 18.1485 6.64384C18.717 6.65607 19.2556 6.87631 19.7164 7.24948C20.3686 7.77559 20.6439 8.72382 20.3687 9.52522C19.9677 10.6876 19.2316 11.6174 18.3699 12.4555C17.3047 13.4833 16.0959 14.303 14.8212 15.031C14.7195 15.0861 14.6058 15.1473 14.4921 15.1473C13.9176 15.1595 13.3371 15.1534 12.7207 15.1534C12.8524 14.615 12.984 14.0889 13.1157 13.5628C13.4388 12.2598 13.762 10.9567 14.0732 9.65369C14.121 9.45793 14.1928 9.38451 14.3963 9.39063C14.8272 9.40898 15.264 9.39675 15.7368 9.39675Z" fill="#0D0D0D"/>
<path d="M36.3801 14.725C36.398 14.5904 36.41 14.4864 36.416 14.4436C35.8714 14.5292 35.3208 14.6638 34.7703 14.6944C34.0522 14.7372 33.5914 14.2907 33.4837 13.5565C33.2981 12.2657 33.9145 11.0973 35.1413 10.4427C35.8714 10.0512 36.6434 9.8187 37.4692 9.78812C38.0736 9.76364 38.684 9.782 39.3363 9.782C39.2346 10.2102 39.1568 10.6385 39.0311 11.0422C39.0072 11.1095 38.7977 11.1523 38.6721 11.1523C37.8043 11.1401 36.9666 11.2625 36.1706 11.6295C35.9313 11.7396 35.7098 11.9048 35.5243 12.0944C35.4046 12.2168 35.3268 12.4064 35.2849 12.5838C35.2071 12.9203 35.3747 13.1222 35.7098 13.165C36.0868 13.2078 36.398 13.0549 36.6853 12.8347C36.8289 12.7246 37.0024 12.6144 37.0802 12.4554C37.4572 11.6968 38.1275 12.0027 38.7499 11.8926C38.4865 12.8347 38.2412 13.7095 37.9839 14.5843C37.9659 14.6455 37.8702 14.7189 37.8103 14.7189C37.3495 14.7311 36.8828 14.725 36.3801 14.725Z" fill="#0D0D0D"/>
<path d="M22.8419 9.94128C22.6205 10.81 22.417 11.6236 22.2135 12.4373C22.2016 12.4923 22.1836 12.5413 22.1716 12.5963C22.0998 12.8532 22.0699 13.1041 22.3392 13.257C22.5247 13.361 22.9436 13.202 23.0573 12.9634C23.2309 12.6024 23.3984 12.2354 23.5181 11.85C23.6976 11.2994 23.8413 10.7427 23.9849 10.1799C24.0328 9.99634 24.0986 9.91069 24.302 9.91681C24.709 9.93516 25.1099 9.92293 25.5647 9.92293C25.4989 10.1737 25.445 10.4001 25.3792 10.6203C25.1877 11.2933 24.9962 11.9601 24.8047 12.633C24.7808 12.7248 24.7509 12.8227 24.7389 12.9205C24.6791 13.4038 24.7928 13.5384 25.4091 13.7036C25.3373 14.0523 25.2655 14.401 25.1817 14.7436C25.1638 14.8048 25.074 14.8965 25.0142 14.8965C24.6192 14.9026 24.2183 14.9271 23.8353 14.8721C23.6019 14.8353 23.3984 14.6518 23.1172 14.505C22.8419 14.609 22.4709 14.7497 22.0998 14.8721C21.8964 14.9393 21.6809 14.976 21.4715 14.9944C20.6337 15.0739 20.2866 14.7558 20.3464 13.8871C20.3703 13.5017 20.4841 13.1163 20.5798 12.737C20.7953 11.8928 21.0346 11.0547 21.25 10.2105C21.3039 9.99634 21.3996 9.92904 21.6031 9.93516C21.9921 9.9474 22.3871 9.94128 22.8419 9.94128Z" fill="#0D0D0D"/>
<path d="M41.588 14.6948C41.7496 13.9423 41.9111 13.2266 42.0488 12.5108C42.0907 12.2906 42.1026 12.052 42.0787 11.8256C42.0488 11.5504 41.8393 11.4647 41.6478 11.6482C41.4204 11.8685 41.1751 12.1132 41.0673 12.4007C40.816 13.0859 40.6365 13.7955 40.451 14.499C40.3971 14.6948 40.3193 14.7682 40.1218 14.7621C39.7149 14.7498 39.3139 14.756 38.8711 14.756C38.8831 14.6458 38.8831 14.5602 38.901 14.4807C39.296 13.0063 39.691 11.532 40.0799 10.0577C40.1338 9.84355 40.2236 9.7579 40.451 9.76402C40.8579 9.78237 41.2588 9.77014 41.6598 9.77014C41.8034 10.1617 41.8034 10.1555 42.1744 9.9659C42.354 9.87413 42.5455 9.78849 42.737 9.75178C43.4252 9.6172 43.9338 10.021 43.9518 10.7306C43.9578 11.0426 43.9338 11.3668 43.874 11.6727C43.6825 12.5903 43.4611 13.5019 43.2396 14.4134C43.2157 14.5113 43.108 14.6642 43.0302 14.6642C42.5574 14.707 42.0907 14.6948 41.588 14.6948Z" fill="#0D0D0D"/>
<path d="M29.1192 13.5994C28.9815 14.0154 28.8618 14.3946 28.7242 14.7678C28.7003 14.8351 28.5806 14.9024 28.5028 14.9024C28.0959 14.8902 27.6889 14.8902 27.288 14.8229C26.8511 14.7495 26.6536 14.4681 26.6776 13.893C26.7015 13.3547 26.8152 12.8163 26.893 12.2413C26.6297 12.2413 26.3544 12.2413 26.0312 12.2413C26.2527 11.3236 26.4621 10.4549 26.6776 9.56787C27.0606 9.56787 27.4136 9.56787 27.7667 9.56787C27.8325 10.0022 27.8325 9.9961 28.3053 9.9961C28.8199 9.98998 29.3286 9.9961 29.8852 9.9961C29.7774 10.4916 29.6697 10.9627 29.562 11.446C29.4603 11.446 29.3825 11.446 29.2987 11.446C28.9277 11.4399 28.7063 11.5806 28.5985 11.9415C28.4908 12.3085 28.401 12.6817 28.3352 13.0549C28.2634 13.4464 28.3651 13.5688 28.7601 13.5994C28.8678 13.6055 28.9696 13.5994 29.1192 13.5994Z" fill="#0D0D0D"/>
<path d="M32.6562 9.87421C32.4109 10.8041 32.1775 11.7034 31.9381 12.5965C31.7885 13.1655 31.8124 13.2022 32.3989 13.2144C32.4288 13.2144 32.4587 13.2266 32.5186 13.2389C32.4109 13.7528 32.3032 14.2605 32.1894 14.7989C31.7107 14.7989 31.2499 14.8233 30.7951 14.7927C30.1727 14.756 29.7897 14.2422 29.9214 13.5631C30.071 12.7923 30.2864 12.0337 30.4779 11.2751C30.5737 10.8836 30.6754 10.4921 30.7951 10.1067C30.825 10.0149 30.9327 9.89257 31.0105 9.89257C31.5431 9.8681 32.0817 9.87421 32.6562 9.87421Z" fill="#0D0D0D"/>
<path d="M33.549 7.33558C33.543 7.966 33.184 8.30264 32.5496 8.29039C32.041 8.27815 31.6221 7.84359 31.6221 7.31722C31.6221 6.78472 32.0948 6.34404 32.6693 6.35016C33.2558 6.35628 33.555 6.68679 33.549 7.33558Z" fill="#0D0D0D"/>
<path d="M27.9658 20.2123C21.018 20.2123 14.4891 19.2518 9.57603 17.5083C4.63299 15.7525 1.91016 13.4034 1.91016 10.9013C1.91016 8.39308 4.63299 6.05005 9.57603 4.2943C14.4891 2.55079 21.024 1.59033 27.9658 1.59033C34.9076 1.59033 41.4425 2.55079 46.3556 4.2943C51.2986 6.05005 54.0215 8.3992 54.0215 10.9013C54.0215 13.4095 51.2986 15.7525 46.3556 17.5083C41.4425 19.2518 34.9076 20.2123 27.9658 20.2123ZM27.9658 1.76162C13.6992 1.76162 2.08969 5.8604 2.08969 10.8952C2.08969 15.9299 13.6992 20.0287 27.9658 20.0287C42.2324 20.0287 53.8419 15.9299 53.8419 10.8952C53.8419 5.8604 42.2324 1.76162 27.9658 1.76162Z" fill="#0D0D0D"/>
<path d="M27.9048 21.7908C20.4663 21.7908 13.4707 20.6652 8.20449 18.6219C2.91436 16.5664 0 13.8196 0 10.8954C0 7.97121 2.91436 5.22441 8.20449 3.16891C13.4647 1.12563 20.4604 0 27.9048 0C35.3493 0 42.339 1.12563 47.6052 3.16891C52.8953 5.22441 55.8096 7.97121 55.8096 10.8954C55.8096 13.8196 52.8953 16.5664 47.6052 18.6219C42.345 20.6652 35.3493 21.7908 27.9048 21.7908ZM27.9048 0.17741C12.6209 0.17741 0.185519 4.98583 0.185519 10.8954C0.185519 16.805 12.6209 21.6073 27.9048 21.6073C43.1888 21.6073 55.6241 16.7989 55.6241 10.8893C55.6241 4.97971 43.1947 0.17741 27.9048 0.17741Z" fill="#0D0D0D"/>
</svg>
