<svg width="1113" height="1127" viewBox="0 0 1113 1127" fill="none" xmlns="http://www.w3.org/2000/svg">
<rect width="1113" height="1127" rx="556.5" fill="#014582"/>
<g clip-path="url(#clip0_1_46)">
<path d="M403.031 320.095H2289.96V634.557H403.031V320.095Z" fill="#004C8F"/>
<path d="M717.532 320.094H2289.96V634.557H717.532V320.094Z" fill="#004C8F"/>
<path d="M403.031 320.095H717.493V634.557H403.031V320.095Z" fill="#ED232A"/>
<path d="M458.07 375.134H662.492V579.556H458.07V375.134Z" fill="#014582"/>
<path d="M544.544 320.094H575.978V634.557H544.544V320.094Z" fill="#014582"/>
<path d="M403.031 461.648H717.493V493.082H403.031V461.648Z" fill="#014582"/>
<path d="M513.11 430.174H607.452V524.518H513.11V430.174Z" fill="white"/>
</g>
<path d="M226 812.266V740.497H249.612V764.719H271.736V740.497H295.385V812.266H271.736V784.421H249.612V812.266H226Z" fill="white"/>
<path d="M332.747 758.33H338.869C343.275 758.33 346.498 758.787 348.558 759.703C350.084 760.37 351.323 761.362 352.411 762.85C353.402 764.318 354.203 766.169 354.795 768.496C355.329 770.803 355.615 773.244 355.615 775.819C355.615 780.015 355.043 783.524 353.803 786.366C352.601 789.208 350.866 791.248 348.634 792.507C346.403 793.785 343.084 794.395 338.698 794.395L332.747 794.434V758.33ZM341.863 812.266C347.433 812.266 352.049 811.809 355.825 810.798C359.62 809.825 362.71 808.528 365.075 806.983C367.478 805.4 369.652 803.264 371.655 800.613C373.638 797.867 375.374 794.415 376.728 790.181C378.12 785.966 378.788 781.217 378.788 775.838C378.788 767.942 377.281 761.267 374.23 755.698C371.14 750.243 366.944 746.295 361.585 743.968C356.244 741.642 349.874 740.497 342.474 740.497H309.65V812.266H341.863Z" fill="white"/>
<path d="M389.602 812.266V740.497H445.599V758.196H412.908V769.697H439.057V786.919H412.908V812.266H389.602Z" fill="white"/>
<path d="M524.672 767.943H502.377C501.957 764.376 500.66 761.554 498.505 759.532C496.331 757.549 493.603 756.576 490.246 756.576C486.069 756.576 482.675 758.197 480.062 761.401C477.43 764.643 476.114 769.888 476.114 777.098C476.114 782.133 476.705 785.909 477.792 788.483C478.918 791.134 480.5 793.042 482.465 794.32C484.487 795.597 486.947 796.189 489.98 796.189C493.603 796.189 496.502 795.273 498.619 793.175C500.794 791.211 502.052 788.274 502.472 784.345H525.168C524.672 788.808 523.775 792.546 522.478 795.598C521.239 798.63 519.027 801.643 516.032 804.676C513 807.746 509.376 810.111 505.199 811.752C501.023 813.411 496.197 814.193 490.666 814.193C485.211 814.193 480.119 813.411 475.523 811.809C470.869 810.169 466.94 807.842 463.812 804.924C460.627 801.891 458.148 798.497 456.374 794.663C453.819 789.266 452.617 783.334 452.617 776.716C452.617 771.185 453.513 765.94 455.325 761.134C457.137 756.366 459.635 752.303 462.82 749.023C466.025 745.761 469.515 743.321 473.405 741.68C478.326 739.582 483.743 738.572 489.751 738.572C494.977 738.572 499.821 739.334 504.398 740.879C508.956 742.424 512.695 744.675 515.613 747.669C518.569 750.663 520.838 754.096 522.421 758.006C523.566 760.733 524.291 764.033 524.672 767.943Z" fill="white"/>
<path d="M600.294 756.652C603.632 756.652 605.787 756.804 606.855 757.109C608.228 757.51 609.372 758.292 610.193 759.322C611.032 760.39 611.471 761.63 611.471 763.06C611.471 764.891 610.746 766.397 609.354 767.542C607.866 768.743 605.329 769.297 601.687 769.297H592.799V756.652H600.294ZM606.226 812.266C611.814 812.266 615.743 811.999 618.051 811.503C620.32 810.969 622.666 810.131 625.05 809.024C627.377 807.804 629.17 806.659 630.352 805.401C632.183 803.703 633.537 801.643 634.529 799.163C635.521 796.665 636.017 793.842 636.017 790.81C636.017 786.481 634.949 782.914 632.775 780.015C630.6 777.097 627.682 775.171 624.001 774.122C630.238 770.193 633.347 765.12 633.347 758.94C633.347 752.551 630.6 747.668 625.164 744.35C620.968 741.794 614.427 740.497 605.558 740.497H569.95V812.266H606.226ZM602.43 782.209C607.103 782.209 610.136 782.781 611.662 783.982C613.073 785.145 613.836 786.747 613.836 788.903C613.836 791.077 613.073 792.793 611.528 793.995C610.059 795.273 606.989 795.807 602.43 795.807H592.799V782.209H602.43Z" fill="white"/>
<path d="M687.874 788.14H672.864L680.264 762.03L687.874 788.14ZM665.807 812.266L668.535 802.845H692.032L694.778 812.266H718.256L692.508 740.497H668.535L642.768 812.266H665.807Z" fill="white"/>
<path d="M728.173 812.266V740.497H750.164L774.977 778.928V740.497H797.597V812.266H775.129L750.85 774.789V812.266H728.173Z" fill="white"/>
<path d="M813.332 812.266V740.497H836.199V764.166L857.542 740.497H885.272L858.972 767.523L888 812.266H859.735L842.474 783.677L836.199 789.875V812.266H813.332Z" fill="white"/>
<defs>
<clipPath id="clip0_1_46">
<rect width="322" height="328.571" fill="white" transform="translate(396 313)"/>
</clipPath>
</defs>
</svg>
