<svg width="98" height="66" viewBox="0 0 98 66" fill="none" xmlns="http://www.w3.org/2000/svg">
<path d="M0.579102 64.9526V54.4539H4.03313V57.9972H7.26952V54.4539H10.7291V64.9526H7.26952V60.8793H4.03313V64.9526H0.579102Z" fill="#595757"/>
<path d="M16.1951 57.0625H17.0907C17.7352 57.0625 18.2067 57.1295 18.508 57.2634C18.7312 57.361 18.9125 57.5061 19.0716 57.7238C19.2167 57.9386 19.3338 58.2093 19.4203 58.5497C19.4984 58.8872 19.5403 59.2443 19.5403 59.6209C19.5403 60.2347 19.4566 60.7481 19.2752 61.1638C19.0995 61.5795 18.8456 61.878 18.5192 62.0622C18.1927 62.2491 17.7073 62.3384 17.0656 62.3384L16.1951 62.344V57.0625ZM17.5287 64.9526C18.3434 64.9526 19.0186 64.8857 19.571 64.7378C20.1262 64.5955 20.5782 64.4058 20.9241 64.1798C21.2757 63.9482 21.5937 63.6358 21.8867 63.248C22.1768 62.8462 22.4307 62.3412 22.6288 61.7219C22.8325 61.1053 22.9301 60.4105 22.9301 59.6237C22.9301 58.4687 22.7098 57.4922 22.2634 56.6775C21.8114 55.8796 21.1976 55.3021 20.4136 54.9617C19.6324 54.6213 18.7005 54.4539 17.618 54.4539H12.8164V64.9526H17.5287Z" fill="#595757"/>
<path d="M24.5117 64.9526V54.4539H32.7031V57.043H27.921V58.7254H31.7461V61.2447H27.921V64.9526H24.5117Z" fill="#595757"/>
<path d="M44.2701 58.4686H41.0086C40.9472 57.9469 40.7575 57.534 40.4422 57.2383C40.1242 56.9481 39.7252 56.8058 39.2341 56.8058C38.6231 56.8058 38.1265 57.0429 37.7443 57.5117C37.3593 57.986 37.1667 58.7532 37.1667 59.8078C37.1667 60.5444 37.2533 61.0968 37.4123 61.4734C37.5769 61.8612 37.8085 62.1402 38.0958 62.3271C38.3916 62.5141 38.7515 62.6006 39.1951 62.6006C39.7252 62.6006 40.1493 62.4666 40.459 62.1597C40.7771 61.8724 40.9612 61.4428 41.0226 60.868H44.3427C44.2701 61.5209 44.1389 62.0677 43.9492 62.5141C43.7679 62.9577 43.4443 63.3985 43.0062 63.8421C42.5626 64.2913 42.0326 64.6373 41.4215 64.8772C40.8105 65.1199 40.1046 65.2344 39.2955 65.2344C38.4976 65.2344 37.7527 65.12 37.0803 64.8856C36.3996 64.6457 35.8248 64.3052 35.3672 63.8784C34.9013 63.4348 34.5386 62.9382 34.2792 62.3774C33.9053 61.5878 33.7295 60.7202 33.7295 59.7521C33.7295 58.943 33.8606 58.1757 34.1257 57.4726C34.3907 56.7751 34.7562 56.1808 35.2221 55.7009C35.6909 55.2238 36.2014 54.8668 36.7706 54.6268C37.4904 54.3199 38.2828 54.1721 39.1617 54.1721C39.9261 54.1721 40.6347 54.2836 41.3043 54.5096C41.9711 54.7356 42.518 55.0648 42.9449 55.5029C43.3773 55.9409 43.7093 56.4431 43.9409 57.015C44.1083 57.414 44.2143 57.8967 44.2701 58.4686Z" fill="#595757"/>
<path d="M55.3324 56.8171C55.8207 56.8171 56.1359 56.8394 56.2922 56.884C56.4931 56.9426 56.6604 57.057 56.7804 57.2076C56.9032 57.3639 56.9674 57.5453 56.9674 57.7545C56.9674 58.0223 56.8614 58.2427 56.6577 58.4101C56.4401 58.5859 56.069 58.6668 55.5361 58.6668H54.236V56.8171H55.3324ZM56.2001 64.9526C57.0176 64.9526 57.5923 64.9136 57.9299 64.841C58.2619 64.7629 58.6051 64.6402 58.9539 64.4784C59.2942 64.2998 59.5564 64.1324 59.7294 63.9483C59.9973 63.7 60.1953 63.3986 60.3404 63.0359C60.4855 62.6704 60.558 62.2575 60.558 61.8139C60.558 61.1806 60.4019 60.6588 60.0838 60.2347C59.7657 59.8079 59.3388 59.5261 58.8003 59.3727C59.7127 58.7979 60.1675 58.0558 60.1675 57.1519C60.1675 56.2172 59.7657 55.5029 58.9705 55.0175C58.3567 54.6436 57.3998 54.4539 56.1025 54.4539H50.8936V64.9526H56.2001ZM55.6449 60.5556C56.3285 60.5556 56.7721 60.6393 56.9953 60.8151C57.2018 60.9853 57.3133 61.2196 57.3133 61.5349C57.3133 61.8529 57.2017 62.104 56.9757 62.2798C56.7609 62.4667 56.3117 62.5449 55.6449 62.5449H54.236V60.5556H55.6449Z" fill="#595757"/>
<path d="M68.1432 61.4233H65.9475L67.0301 57.6038L68.1432 61.4233ZM64.9153 64.9526L65.3142 63.5744H68.7515L69.1533 64.9526H72.5877L68.8212 54.4539H65.3142L61.5449 64.9526H64.9153Z" fill="#595757"/>
<path d="M74.04 64.9526V54.4539H77.2569L80.8867 60.0758V54.4539H84.1956V64.9526H80.909L77.3573 59.4703V64.9526H74.04Z" fill="#595757"/>
<path d="M86.498 64.9526V54.4539H89.8433V57.9163L92.9653 54.4539H97.0219L93.1745 58.4073L97.4209 64.9526H93.2861L90.7612 60.7705L89.8433 61.6772V64.9526H86.498Z" fill="#595757"/>
<path d="M28.2109 0.76585H70.3067V42.8616H28.2109V0.76585Z" fill="#595757"/>
<path d="M35.5781 8.13383H62.9433V35.499H35.5781V8.13383Z" fill="white"/>
<path d="M47.1553 0.76585H51.3632V42.8616H47.1553V0.76585Z" fill="white"/>
<path d="M28.2109 19.715H70.3067V23.9229H28.2109V19.715Z" fill="white"/>
<path d="M42.9473 15.502H55.5764V28.1313H42.9473V15.502Z" fill="#595757"/>
</svg>
