<svg width="1113" height="1127" viewBox="0 0 1113 1127" fill="none" xmlns="http://www.w3.org/2000/svg">
<rect width="1113" height="1127" rx="556.5" fill="#E6E6E6"/>
<path d="M503.775 419.296C564.809 358.711 638.852 342.987 668.483 384.282C698.114 425.576 672.072 509.041 611.038 569.626C550.005 630.66 475.961 646.361 445.882 604.618C416.722 562.897 442.764 479.859 503.775 419.296Z" fill="#F06321"/>
<path d="M544.172 386.972C537.443 391.907 530.714 397.739 523.985 404.042C470.578 456.978 448.124 529.676 474.615 566.036C501.98 602.374 567.5 588.915 622.253 535.508C651.884 506.797 671.623 473.577 679.698 442.623C681.941 419.743 678.801 399.533 668.483 384.281C645.155 351.981 594.888 354.65 544.172 386.972Z" fill="#AE282E"/>
<path d="M621.356 393.701V395.047C620.908 402.674 616.421 412.094 608.346 420.169C596.234 431.833 580.083 436.319 573.332 429.613C565.706 422.435 570.214 406.711 582.327 394.15C594.888 382.037 611.038 378 617.767 385.178C620.01 387.421 621.356 390.112 621.356 393.701ZM574.7 599.682C545.966 621.215 516.358 632.004 487.625 627.518C499.737 627.967 509.629 614.486 517.704 596.541C525.779 578.148 530.265 561.101 534.302 544.929C540.134 519.358 540.583 501.413 537.443 497.376C532.508 491.073 521.741 492.441 509.158 499.619C502.877 503.208 494.802 500.965 504.245 489.301C514.115 477.637 552.247 449.8 565.705 445.314C580.981 441.277 598.028 447.109 592.196 463.707C588.136 475.82 535.2 614.037 574.7 599.682Z" fill="white"/>
<path d="M262 768.799H286.498L305.704 697H281.457L262 768.799Z" fill="#004A7F"/>
<path d="M386.868 768.799H411.366L430.571 697H406.073L386.868 768.799Z" fill="#004A7F"/>
<path d="M511.735 768.799H536.257L555.439 697H530.675L511.735 768.799Z" fill="#004A7F"/>
<path d="M363.823 721.326H387.822C391.114 705.189 381.002 697 357.473 697C330.181 697 311.838 710.729 305.488 734.104C300.068 755.781 311.132 768.799 336.766 768.799C362.647 768.799 377.933 760.61 384.295 742.052H360.295C356.768 750.241 350.653 754.336 342.187 754.336C330.652 754.336 325.948 747.11 329.476 733.381C333.239 719.159 342.187 711.21 353.71 711.21C361.236 711.21 364.528 714.582 363.823 721.326Z" fill="#004A7F"/>
<path d="M489.835 721.326H514.25C517.6 705.189 507.061 697 483.124 697C455.598 697 436.697 710.729 430.477 734.104C424.735 755.781 435.98 768.799 462.07 768.799C488.16 768.799 503.712 760.61 510.411 742.052H486.007C482.645 750.241 476.186 754.336 467.573 754.336C455.849 754.336 451.064 747.11 454.88 733.381C458.481 719.159 467.573 711.21 479.296 711.21C486.964 711.21 490.553 714.582 489.835 721.326Z" fill="#004A7F"/>
<path d="M590.878 757.228L596.403 736.518H609.856V725.44H599.526L604.331 707.849H609.856V697H591.587L572.608 768.799H609.856V757.228H590.878ZM609.856 736.518H612.499C624.763 736.518 630.528 738.685 628.126 747.114C626.204 754.579 620.199 757.228 609.856 757.228V768.799C619.958 768.799 627.405 767.836 634.853 762.767C639.897 759.395 643.513 754.338 644.954 748.558C647.585 738.685 643.261 731.93 631.97 730.497C642.54 728.571 649.279 723.02 651.429 714.351C653.35 707.849 651.668 703.032 647.105 699.902C643.261 697.253 636.774 697 628.126 697H609.856V707.849H619.238C630.769 707.849 636.054 709.294 634.372 716.518C632.21 723.502 625.964 725.44 614.193 725.44H609.856V736.518Z" fill="#004A7F"/>
<path d="M676.818 718.247V726.974C674.89 727.93 673.203 729.584 672.48 731.945H658.02C660.418 725.096 666.937 720.361 676.818 718.247ZM676.818 759.588C675.131 760.061 673.203 760.297 671.275 760.297C664.768 760.297 661.876 757.687 663.322 752.964C664.768 747.532 669.106 745.643 676.818 744.934V736.668C660.177 737.849 651.019 742.1 648.127 752.728C645.476 762.411 651.754 768.799 664.768 768.799C669.106 768.799 673.203 768.09 676.818 766.673V759.588ZM690.809 744.934L690.567 745.643C688.639 752.964 683.567 757.935 676.818 759.588V766.673C680.434 765.245 683.566 763.367 686.458 760.769L685.253 767.618H699.726C700.449 764.3 701.172 760.521 702.136 756.743L707.679 736.905C708.161 735.251 708.402 733.598 708.402 731.945V729.583C707.92 721.542 700.931 717.291 687.917 717.291C683.807 717.291 680.193 717.763 676.818 718.247V726.974C678.988 725.805 681.638 725.332 685.024 725.332C692.484 725.332 695.388 728.627 693.207 735.724L692.978 736.432H685.253C682.373 736.432 679.47 736.668 676.818 736.668V744.934L690.809 744.934Z" fill="#004A7F"/>
<path d="M713.085 768.799H727.444L734.264 742.924C736.616 733.739 744.848 727.201 753.55 727.201C762.017 727.201 765.087 732.289 762.264 742.441L755.432 768.799H769.791L777.787 738.09C781.08 725.038 774.73 717.291 760.618 717.291C751.434 717.291 744.143 720.675 737.792 727.443L739.438 718.5H725.092C723.68 726.476 722.74 731.322 722.257 733.256L713.085 768.799Z" fill="#004A7F"/>
<path d="M783.323 768.799H797.737L804.939 741.811L824.395 768.799H844.319L822.222 740.125L852 718.677H833.516L805.899 738.68L816.941 697H802.538L783.323 768.799Z" fill="#004A7F"/>
</svg>
