<svg width="182" height="36" viewBox="0 0 182 36" fill="none" xmlns="http://www.w3.org/2000/svg">
<path d="M10.244 7.86642C18.3606 -0.190562 28.2074 -2.28162 32.1479 3.21002C36.0884 8.70165 32.6252 19.8013 24.5085 27.8582C16.3919 35.9749 6.54513 38.063 2.54498 32.5117C-1.33288 26.9634 2.13034 15.9204 10.244 7.86642Z" fill="#595757"/>
<path d="M15.6164 3.56739C14.7215 4.22364 13.8266 4.99921 12.9317 5.83742C5.82925 12.8772 2.84329 22.545 6.36618 27.3804C10.0054 32.2128 18.7186 30.423 26 23.3206C29.9405 19.5024 32.5655 15.0846 33.6394 10.9681C33.9377 7.9255 33.5201 5.23785 32.1479 3.20944C29.0456 -1.08603 22.3608 -0.73106 15.6164 3.56739Z" fill="#595757"/>
<path d="M25.8801 4.46261V4.64159C25.8206 5.65579 25.2239 6.90863 24.15 7.9825C22.5392 9.53364 20.3915 10.1302 19.4936 9.23833C18.4794 8.28378 19.079 6.19273 20.6898 4.52227C22.3603 2.91147 24.508 2.37453 25.4029 3.32908C25.7012 3.62738 25.8801 3.98533 25.8801 4.46261ZM19.6756 31.8551C15.8544 34.7188 11.9169 36.1536 8.0957 35.557C9.7065 35.6167 11.022 33.8239 12.0958 31.4375C13.1697 28.9915 13.7663 26.7245 14.3032 24.5737C15.0788 21.1732 15.1385 18.7868 14.7208 18.2499C14.0646 17.4117 12.6328 17.5936 10.9593 18.5482C10.1241 19.0254 9.05024 18.7271 10.3061 17.176C11.6186 15.6249 16.6896 11.923 18.4794 11.3264C20.5108 10.7895 22.7779 11.565 22.0023 13.7724C21.4624 15.3832 14.4226 33.7642 19.6756 31.8551Z" fill="white"/>
<path d="M33.6963 35.4971H39.7845L44.5573 17.7097H38.5317L33.6963 35.4971Z" fill="#595757"/>
<path d="M64.9092 35.4969H70.9974L75.7702 17.7095H69.6819L64.9092 35.4969Z" fill="#595757"/>
<path d="M96.1797 35.4969H102.208L106.924 17.7095H100.836L96.1797 35.4969Z" fill="#595757"/>
<path d="M59.2394 23.7978H65.3277C66.1629 19.8006 63.5975 17.7722 57.6286 17.7722C50.7052 17.7722 46.0517 21.1728 44.4409 26.9627C43.0658 32.3321 45.8727 35.5566 52.3756 35.5566C58.9411 35.5566 62.819 33.5282 64.4328 28.9315H58.3445C57.4496 30.9599 55.8985 31.9741 53.7508 31.9741C50.8245 31.9741 49.6313 30.1843 50.5262 26.7837C51.4807 23.2609 53.7508 21.2921 56.6741 21.2921C58.5831 21.2921 59.4184 22.1273 59.2394 23.7978Z" fill="#595757"/>
<path d="M90.5137 23.7978H96.602C97.4372 19.8006 94.8092 17.7722 88.8403 17.7722C81.9765 17.7722 77.2634 21.1728 75.7123 26.9627C74.2805 32.3321 77.0844 35.5566 83.5903 35.5566C90.0961 35.5566 93.974 33.5282 95.6445 28.9315H89.5592C88.721 30.9599 87.1102 31.9741 84.9624 31.9741C82.0391 31.9741 80.846 30.1843 81.7976 26.7837C82.6954 23.2609 84.9624 21.2921 87.8858 21.2921C89.7978 21.2921 90.6927 22.1273 90.5137 23.7978Z" fill="#595757"/>
<path d="M116.057 32.6906L117.429 27.5599H120.77V24.8155H118.204L119.398 20.4574H120.77V17.7698H116.233L111.52 35.5572H120.77V32.6906H116.057ZM120.77 27.5599H121.426C124.472 27.5599 125.903 28.0968 125.307 30.1849C124.83 32.0343 123.338 32.6906 120.77 32.6906V35.5572C123.278 35.5572 125.128 35.3185 126.977 34.0627C128.23 33.2275 129.128 31.9746 129.486 30.5428C130.139 28.0968 129.065 26.4234 126.261 26.0684C128.886 25.5911 130.56 24.216 131.094 22.0682C131.571 20.4574 131.153 19.2642 130.02 18.4887C129.065 17.8324 127.455 17.7698 125.307 17.7698H120.77V20.4574H123.099C125.963 20.4574 127.276 20.8154 126.858 22.6052C126.321 24.3353 124.77 24.8155 121.847 24.8155H120.77V27.5599Z" fill="#595757"/>
<path d="M137.483 23.0846V25.2891C137.006 25.5307 136.588 25.9483 136.409 26.5449H132.829C133.423 24.8148 135.037 23.6186 137.483 23.0846ZM137.483 33.528C137.065 33.6473 136.588 33.707 136.111 33.707C134.5 33.707 133.784 33.0477 134.142 31.8545C134.5 30.4824 135.574 30.0051 137.483 29.8261V27.7381C133.363 28.0364 131.096 29.1102 130.38 31.7949C129.724 34.2409 131.278 35.8547 134.5 35.8547C135.574 35.8547 136.588 35.6757 137.483 35.3178V33.528ZM140.946 29.8261L140.886 30.0051C140.409 31.8545 139.153 33.1104 137.483 33.528V35.3178C138.378 34.9568 139.153 34.4825 139.869 33.8263L139.571 35.5564H143.153C143.332 34.7182 143.511 33.7636 143.75 32.8091L145.122 27.7977C145.241 27.3801 145.301 26.9625 145.301 26.5449V25.9483C145.182 23.9169 143.452 22.843 140.23 22.843C139.213 22.843 138.318 22.9623 137.483 23.0846V25.2891C138.02 24.9937 138.676 24.8744 139.514 24.8744C141.361 24.8744 142.08 25.7067 141.54 27.4994L141.483 27.6784H139.571C138.858 27.6784 138.139 27.7381 137.483 27.7381V29.8261L140.946 29.8261Z" fill="#595757"/>
<path d="M146.373 35.5564H150.015L151.745 29.1699C152.342 26.9028 154.43 25.289 156.637 25.289C158.785 25.289 159.564 26.5449 158.848 29.0506L157.115 35.5564H160.757L162.785 27.9767C163.621 24.7551 162.01 22.843 158.43 22.843C156.101 22.843 154.251 23.6782 152.64 25.3487L153.058 23.1413H149.419C149.061 25.1101 148.822 26.3062 148.7 26.7835L146.373 35.5564Z" fill="#595757"/>
<path d="M163.977 35.5566H167.559L169.349 28.8718L174.184 35.5566H179.136L173.644 28.4542L181.045 23.1415H176.451L169.588 28.0963L172.332 17.7722H168.752L163.977 35.5566Z" fill="#595757"/>
</svg>
