<svg width="170" height="52" viewBox="0 0 170 52" fill="none" xmlns="http://www.w3.org/2000/svg">
<path d="M101.327 39.4111C107.587 39.4111 112.351 35.619 112.351 29.0992C112.351 22.5395 107.587 18.7468 101.327 18.7468C95.0701 18.7468 90.3027 22.5395 90.3027 29.0992C90.3027 35.619 95.0701 39.4111 101.327 39.4111ZM101.327 34.6348C98.3065 34.6348 97.0702 32.0193 97.0702 29.0992C97.0702 26.1413 98.3065 23.5247 101.327 23.5247C104.347 23.5247 105.584 26.1413 105.584 29.0992C105.584 32.0193 104.347 34.6348 101.327 34.6348Z" fill="#595757"/>
<path d="M111.747 23.9793H115.493V32.0172C115.493 36.7165 116.913 39.4095 122.771 39.4095C124.408 39.4095 125.644 39.184 126.88 39.0299L126.663 34.5934C126.009 34.7071 125.317 34.8613 124.663 34.8613C122.587 34.8613 122.043 33.6458 122.043 31.2579V23.9793H126.628V19.2004H122.043L122.039 12.3691L115.603 14.7643V19.2004H111.747V23.9793ZM149.544 38.9554H156.094V29.172H156.166L161.405 38.9554H169.337L162.205 28.2638L168.792 19.2014H161.623L156.166 27.5046H156.094V12.394L149.544 14.7591V38.9554ZM72.8633 38.9554H79.4124V29.172H79.4849L84.7233 38.9554H92.6546L85.5238 28.2638L92.1091 19.2014H84.9416L79.4849 27.5046H79.4124V12.394L72.8633 14.6464V38.9554ZM147.22 39.0485C146.926 37.4757 146.852 35.9019 146.852 34.3291V26.885C146.852 20.7846 142.617 18.5968 137.719 18.5968C134.883 18.5968 132.418 19.0178 130.06 20.0165L130.171 24.6972C132.012 23.623 134.148 23.2004 136.283 23.2004C138.677 23.2004 140.63 23.9297 140.665 26.6533C139.819 26.5007 138.64 26.3869 137.572 26.3869C134.037 26.3869 127.667 27.1146 127.667 33.215C127.667 37.5528 131.054 39.5089 134.848 39.5089C137.572 39.5089 139.413 38.3974 140.923 35.9019H140.997C140.997 36.9394 141.106 37.9764 141.143 39.0485H147.22ZM133.853 32.719C133.853 30.7981 135.621 30.0704 137.868 30.0704C138.862 30.0704 139.819 30.1459 140.665 30.1847C140.665 32.5245 139.083 34.9057 136.579 34.9057C135.031 34.9057 133.853 34.0984 133.853 32.719Z" fill="#595757"/>
<path d="M0.663086 26.0006C0.663086 12.1137 13.2243 0.855225 28.7187 0.855225C44.2131 0.855225 56.7728 12.1137 56.7728 26.0006C56.7728 39.8875 44.2131 51.145 28.7187 51.145C13.2243 51.145 0.663086 39.8875 0.663086 26.0006Z" fill="#595757"/>
<path d="M25.3109 8.98538L31.8278 6.74072L31.861 43.4606L25.2871 45.7565L25.3109 8.98538Z" fill="white"/>
<path d="M49.8146 28.6081C49.2042 33.8639 46.3778 39.1674 40.2039 39.1782C36.5993 39.1849 33.7833 36.6139 31.8353 33.4657V29.8225C34.2751 31.0855 36.5546 32.4396 39.3204 32.4809C42.7305 32.5342 45.811 31.1673 47.0855 28.6081H49.8146ZM29.1791 31.9063C26.3468 35.4631 23.6102 39.0986 18.482 39.0986C11.2395 39.0986 7.80469 31.8013 7.80469 25.6994C7.80469 19.8359 10.4901 12.8955 17.545 12.8955C20.6046 12.8955 23.5531 14.8474 25.308 16.9111L25.3036 21.8876C23.8365 20.8594 20.5496 19.8493 18.4026 19.811C13.93 19.7334 9.98343 21.7552 10.0534 26.3562C10.1006 29.5262 13.1116 31.6808 16.1092 31.6808C20.7014 31.6808 23.4812 27.311 25.8063 23.9931C26.456 23.1253 28.2843 20.5765 28.5692 20.1684C31.1504 16.4089 34.1386 12.9767 39.2668 12.9767C45.3068 12.9767 48.6975 18.05 49.6583 23.2747H46.9336C45.8373 21.5819 43.7276 20.5444 41.6481 20.5444C36.9025 20.5444 34.0667 25.0953 31.6934 28.4452C31.6934 28.4452 29.8482 31.0674 29.1791 31.9063Z" fill="white"/>
</svg>
