<svg width="139" height="70" viewBox="0 0 139 70" fill="none" xmlns="http://www.w3.org/2000/svg">
<path fill-rule="evenodd" clip-rule="evenodd" d="M69.9396 68.9854H0.490234V0.911621H138.043L69.9396 68.9854ZM68.5943 13.7031L82.0535 13.7058C95.2435 13.7058 101.165 18.3223 101.165 28.379C101.165 37.4128 94.9743 42.7992 84.4761 42.7992H79.9V55.798H59.9805L57.827 49.5826C55.6735 50.2663 53.5201 50.6728 50.8282 50.6728C48.1364 50.6728 45.7137 50.2529 43.5603 49.5314L41.676 55.798H29.2936L30.6395 52.1829C30.5022 52.2515 30.4349 52.3202 30.3662 52.3903C30.3003 52.4576 30.233 52.5262 30.1011 52.5974C27.1401 55.0686 23.1023 56.4279 18.5262 56.5141L17.7187 56.5194C12.335 56.5194 6.95133 55.0066 2.37522 52.4332L6.68215 44.1289C11.2583 46.8019 13.9501 47.4022 17.7187 47.3322C19.8721 47.2865 21.218 46.9204 22.2948 45.954C22.8331 45.3699 23.1023 44.6431 23.1023 43.8436C23.1023 41.6794 20.1413 40.6699 16.3728 39.5044C13.1426 38.5595 9.91235 37.2701 6.95133 35.2916C3.99032 32.9417 2.37522 29.9914 2.37522 25.8325C2.37522 22.8096 3.72113 20.0828 5.60542 17.9347C8.56643 14.8472 13.4117 12.9844 19.3338 12.9844C24.1791 12.9898 30.1011 14.3922 34.6772 16.6103L29.8319 24.8123C24.9866 22.5027 22.564 22.2793 19.8721 22.142C15.8344 21.9267 13.9501 23.3695 13.9501 24.9415C13.6809 26.8366 17.7187 28.5701 21.2181 29.7492C26.8709 31.5042 33.8697 33.8488 34.9464 40.6322L45.1754 13.7031H56.7502L68.5943 45.9029V13.7031ZM46.5213 40.503C47.8672 40.993 49.2131 41.2729 50.8282 41.2729C52.4433 41.2729 53.7892 41.0091 55.1352 40.5461L50.8282 26.9577L46.5213 40.503ZM79.9 33.4827H82.861C86.8988 33.4827 90.129 32.1664 90.129 27.9672C90.129 23.8837 86.8988 22.562 82.861 22.562H79.9V33.4827Z" fill="#1976D3"/>
<path d="M86.898 64.636C86.898 62.5552 88.5131 60.9697 90.3974 60.9697C92.2817 60.9697 93.8968 62.5552 93.8968 64.636C93.8968 66.7948 92.2817 68.3507 90.3974 68.3507C88.5131 68.3507 86.898 66.7948 86.898 64.636ZM90.3974 69.0883C92.8201 69.0883 94.9735 67.2013 94.9735 64.636C94.9735 62.1083 92.8201 60.251 90.3974 60.251C87.9748 60.251 85.8213 62.1083 85.8213 64.636C85.8213 67.2013 87.9748 69.0883 90.3974 69.0883ZM89.5899 65.0048H90.3974L91.7433 67.2013H92.5509L91.205 64.9617C91.7433 64.8702 92.5509 64.4745 92.5509 63.57C92.5509 62.5552 91.7433 62.1083 90.6666 62.1083H88.7823V67.2013H89.5899V65.0048ZM89.5899 64.3479V62.7571H90.6666C90.9358 62.7571 91.7433 62.8809 91.7433 63.5242C91.7433 64.2968 90.9358 64.3479 90.3974 64.3479H89.5899Z" fill="#1976D3"/>
</svg>
