<svg width="1113" height="1127" viewBox="0 0 1113 1127" fill="none" xmlns="http://www.w3.org/2000/svg">
<rect width="1113" height="1127" rx="556.5" fill="#014389"/>
<g clip-path="url(#clip0_1_6)">
<path fill-rule="evenodd" clip-rule="evenodd" d="M209 750.702H588.554L960 378H209L209 750.702Z" fill="white"/>
<path fill-rule="evenodd" clip-rule="evenodd" d="M654.683 452.54H580.512L580.76 627.545L516.175 452.474H452.134L397.002 598.681C391.14 561.477 352.8 548.64 322.633 539.024C302.712 532.605 281.569 523.163 281.784 512.728C281.949 504.164 293.094 496.221 315.244 497.405C330.105 498.209 343.232 499.41 369.345 512.065L395.021 467.175C371.211 455.017 338.287 447.339 311.29 447.314H311.125C279.645 447.314 253.433 457.543 237.186 474.397C225.859 486.158 219.749 501.116 219.502 517.656C219.089 540.415 227.402 556.549 244.872 569.445C259.633 580.294 278.514 587.334 295.15 592.502C315.666 598.88 332.425 604.429 332.218 616.239C332.053 620.546 330.435 624.571 327.348 627.818C322.229 633.119 314.386 635.106 303.529 635.322C282.584 635.769 267.063 632.464 242.329 617.796L219.485 663.266C244.195 677.362 270.424 684.436 300.227 684.436L306.931 684.386C332.871 683.914 353.923 677.677 370.649 664.177C371.607 663.407 372.466 662.628 373.357 661.841L370.55 676.352L433.13 676.153L444.357 647.314C456.163 651.356 469.587 653.592 483.837 653.592C497.723 653.592 510.784 651.472 522.367 647.662L530.193 676.153L642.473 676.261L642.745 610.516H666.638C724.387 610.516 758.525 581.031 758.525 531.586C758.506 476.518 725.32 452.532 654.683 452.532L654.683 452.54ZM483.837 602.135C475.209 602.135 467.119 600.627 460.159 597.977L483.572 523.809H484.027L507.06 598.184C500.125 600.669 492.225 602.135 483.828 602.135H483.837ZM659.025 559.522H642.728V499.749H659.034C680.747 499.749 698.084 507.005 698.084 529.251C698.065 552.275 680.747 559.522 659.034 559.522" fill="#014389"/>
</g>
<defs>
<clipPath id="clip0_1_6">
<rect width="751" height="372.702" fill="white" transform="translate(209 378)"/>
</clipPath>
</defs>
</svg>
